<?xml version="1.0" encoding="UTF-8" standalone="no"?>
<!DOCTYPE svg PUBLIC "-//W3C//DTD SVG 1.1//EN"
 "http://www.w3.org/Graphics/SVG/1.1/DTD/svg11.dtd">
<!-- Generated by graphviz version 2.43.0 (0)
 -->
<!-- Title: Entity Relationship Diagram Pages: 1 -->
<svg width="1169pt" height="781pt"
 viewBox="0.00 0.00 1169.00 780.50" xmlns="http://www.w3.org/2000/svg" xmlns:xlink="http://www.w3.org/1999/xlink">
<g id="graph0" class="graph" transform="scale(1 1) rotate(0) translate(4 776.5)">
<title>Entity Relationship Diagram</title>
<polygon fill="white" stroke="transparent" points="-4,4 -4,-776.5 1165,-776.5 1165,4 -4,4"/>
<text text-anchor="middle" x="580.5" y="-6.8" font-family="Times,serif" font-size="9.00" fill="#a8a8a8">Created by erdantic v0.5.0 &lt;https://github.com/drivendataorg/erdantic&gt;</text>
<!-- src.models.Companion.Companion -->
<g id="node1" class="node">
<title>src.models.Companion.Companion</title>
<g id="a_node1"><a xlink:title="src.models.Companion.Companion&#10;&#10;Companion(content_ID: str, item_ID: int, skin_ID: int, species: str)&#10;">
<polygon fill="none" stroke="black" points="1026.5,-482.5 1026.5,-503.5 1137.5,-503.5 1137.5,-482.5 1026.5,-482.5"/>
<text text-anchor="start" x="1037" y="-490.3" font-family="Times,serif" font-weight="bold" font-size="14.00">Companion</text>
<polygon fill="none" stroke="black" points="1026.5,-461.5 1026.5,-482.5 1110.5,-482.5 1110.5,-461.5 1026.5,-461.5"/>
<text text-anchor="start" x="1029.5" y="-468.3" font-family="Times,serif" font-size="14.00">content_ID</text>
<polygon fill="none" stroke="black" points="1110.5,-461.5 1110.5,-482.5 1137.5,-482.5 1137.5,-461.5 1110.5,-461.5"/>
<text text-anchor="start" x="1113.5" y="-468.3" font-family="Times,serif" font-size="14.00">str</text>
<polygon fill="none" stroke="black" points="1026.5,-440.5 1026.5,-461.5 1110.5,-461.5 1110.5,-440.5 1026.5,-440.5"/>
<text text-anchor="start" x="1040.5" y="-447.3" font-family="Times,serif" font-size="14.00">item_ID</text>
<polygon fill="none" stroke="black" points="1110.5,-440.5 1110.5,-461.5 1137.5,-461.5 1137.5,-440.5 1110.5,-440.5"/>
<text text-anchor="start" x="1114" y="-447.3" font-family="Times,serif" font-size="14.00">int</text>
<polygon fill="none" stroke="black" points="1026.5,-419.5 1026.5,-440.5 1110.5,-440.5 1110.5,-419.5 1026.5,-419.5"/>
<text text-anchor="start" x="1042" y="-426.3" font-family="Times,serif" font-size="14.00">skin_ID</text>
<polygon fill="none" stroke="black" points="1110.5,-419.5 1110.5,-440.5 1137.5,-440.5 1137.5,-419.5 1110.5,-419.5"/>
<text text-anchor="start" x="1114" y="-426.3" font-family="Times,serif" font-size="14.00">int</text>
<polygon fill="none" stroke="black" points="1026.5,-398.5 1026.5,-419.5 1110.5,-419.5 1110.5,-398.5 1026.5,-398.5"/>
<text text-anchor="start" x="1042" y="-405.3" font-family="Times,serif" font-size="14.00">species</text>
<polygon fill="none" stroke="black" points="1110.5,-398.5 1110.5,-419.5 1137.5,-419.5 1137.5,-398.5 1110.5,-398.5"/>
<text text-anchor="start" x="1113.5" y="-405.3" font-family="Times,serif" font-size="14.00">str</text>
</a>
</g>
</g>
<!-- src.models.Info.Info -->
<g id="node2" class="node">
<title>src.models.Info.Info</title>
<g id="a_node2"><a xlink:title="src.models.Info.Info&#10;&#10;Info(game_datetime: float, game_length: float, game_version: str, participants: List[src.models.Participant.Participant], queue_id: int, tft_game_type: str, tft_set_core_name: str, tft_set_number: int)&#10;">
<polygon fill="none" stroke="black" points="257.5,-630.5 257.5,-651.5 516.5,-651.5 516.5,-630.5 257.5,-630.5"/>
<text text-anchor="start" x="370.5" y="-638.3" font-family="Times,serif" font-weight="bold" font-size="14.00">Info</text>
<polygon fill="none" stroke="black" points="257.5,-609.5 257.5,-630.5 393.5,-630.5 393.5,-609.5 257.5,-609.5"/>
<text text-anchor="start" x="270.5" y="-616.3" font-family="Times,serif" font-size="14.00">game_datetime</text>
<polygon fill="none" stroke="black" points="393.5,-609.5 393.5,-630.5 516.5,-630.5 516.5,-609.5 393.5,-609.5"/>
<text text-anchor="start" x="439" y="-616.3" font-family="Times,serif" font-size="14.00">float</text>
<polygon fill="none" stroke="black" points="257.5,-588.5 257.5,-609.5 393.5,-609.5 393.5,-588.5 257.5,-588.5"/>
<text text-anchor="start" x="279.5" y="-595.3" font-family="Times,serif" font-size="14.00">game_length</text>
<polygon fill="none" stroke="black" points="393.5,-588.5 393.5,-609.5 516.5,-609.5 516.5,-588.5 393.5,-588.5"/>
<text text-anchor="start" x="439" y="-595.3" font-family="Times,serif" font-size="14.00">float</text>
<polygon fill="none" stroke="black" points="257.5,-567.5 257.5,-588.5 393.5,-588.5 393.5,-567.5 257.5,-567.5"/>
<text text-anchor="start" x="276" y="-574.3" font-family="Times,serif" font-size="14.00">game_version</text>
<polygon fill="none" stroke="black" points="393.5,-567.5 393.5,-588.5 516.5,-588.5 516.5,-567.5 393.5,-567.5"/>
<text text-anchor="start" x="444.5" y="-574.3" font-family="Times,serif" font-size="14.00">str</text>
<polygon fill="none" stroke="black" points="257.5,-546.5 257.5,-567.5 393.5,-567.5 393.5,-546.5 257.5,-546.5"/>
<text text-anchor="start" x="282" y="-553.3" font-family="Times,serif" font-size="14.00">participants</text>
<polygon fill="none" stroke="black" points="393.5,-546.5 393.5,-567.5 516.5,-567.5 516.5,-546.5 393.5,-546.5"/>
<text text-anchor="start" x="396.5" y="-553.3" font-family="Times,serif" font-size="14.00">List[Participant]</text>
<polygon fill="none" stroke="black" points="257.5,-525.5 257.5,-546.5 393.5,-546.5 393.5,-525.5 257.5,-525.5"/>
<text text-anchor="start" x="293.5" y="-532.3" font-family="Times,serif" font-size="14.00">queue_id</text>
<polygon fill="none" stroke="black" points="393.5,-525.5 393.5,-546.5 516.5,-546.5 516.5,-525.5 393.5,-525.5"/>
<text text-anchor="start" x="445" y="-532.3" font-family="Times,serif" font-size="14.00">int</text>
<polygon fill="none" stroke="black" points="257.5,-504.5 257.5,-525.5 393.5,-525.5 393.5,-504.5 257.5,-504.5"/>
<text text-anchor="start" x="274.5" y="-511.3" font-family="Times,serif" font-size="14.00">tft_game_type</text>
<polygon fill="none" stroke="black" points="393.5,-504.5 393.5,-525.5 516.5,-525.5 516.5,-504.5 393.5,-504.5"/>
<text text-anchor="start" x="444.5" y="-511.3" font-family="Times,serif" font-size="14.00">str</text>
<polygon fill="none" stroke="black" points="257.5,-483.5 257.5,-504.5 393.5,-504.5 393.5,-483.5 257.5,-483.5"/>
<text text-anchor="start" x="260.5" y="-490.3" font-family="Times,serif" font-size="14.00">tft_set_core_name</text>
<polygon fill="none" stroke="black" points="393.5,-483.5 393.5,-504.5 516.5,-504.5 516.5,-483.5 393.5,-483.5"/>
<text text-anchor="start" x="444.5" y="-490.3" font-family="Times,serif" font-size="14.00">str</text>
<polygon fill="none" stroke="black" points="257.5,-462.5 257.5,-483.5 393.5,-483.5 393.5,-462.5 257.5,-462.5"/>
<text text-anchor="start" x="271" y="-469.3" font-family="Times,serif" font-size="14.00">tft_set_number</text>
<polygon fill="none" stroke="black" points="393.5,-462.5 393.5,-483.5 516.5,-483.5 516.5,-462.5 393.5,-462.5"/>
<text text-anchor="start" x="445" y="-469.3" font-family="Times,serif" font-size="14.00">int</text>
</a>
</g>
</g>
<!-- src.models.Participant.Participant -->
<g id="node3" class="node">
<title>src.models.Participant.Participant</title>
<g id="a_node3"><a xlink:title="src.models.Participant.Participant&#10;&#10;Participant(participant_id: str, augments: List[str], companion: src.models.Companion.Companion, gold_left: int, last_round: int, level: int, partner_group_id: int, placement: int, players_eliminated: int, puuid: str, time_eliminated: float, total_damage_to_players: int, traits: List[src.models.Trait.Trait], units: List[src.models.Unit.Unit])&#10;">
<polygon fill="none" stroke="black" points="624,-545.5 624,-566.5 894,-566.5 894,-545.5 624,-545.5"/>
<text text-anchor="start" x="714.5" y="-553.3" font-family="Times,serif" font-weight="bold" font-size="14.00">Participant</text>
<polygon fill="none" stroke="black" points="624,-524.5 624,-545.5 807,-545.5 807,-524.5 624,-524.5"/>
<text text-anchor="start" x="665.5" y="-531.3" font-family="Times,serif" font-size="14.00">participant_id</text>
<polygon fill="none" stroke="black" points="807,-524.5 807,-545.5 894,-545.5 894,-524.5 807,-524.5"/>
<text text-anchor="start" x="840" y="-531.3" font-family="Times,serif" font-size="14.00">str</text>
<polygon fill="none" stroke="black" points="624,-503.5 624,-524.5 807,-524.5 807,-503.5 624,-503.5"/>
<text text-anchor="start" x="680" y="-510.3" font-family="Times,serif" font-size="14.00">augments</text>
<polygon fill="none" stroke="black" points="807,-503.5 807,-524.5 894,-524.5 894,-503.5 807,-503.5"/>
<text text-anchor="start" x="821.5" y="-510.3" font-family="Times,serif" font-size="14.00">List[str]</text>
<polygon fill="none" stroke="black" points="624,-482.5 624,-503.5 807,-503.5 807,-482.5 624,-482.5"/>
<text text-anchor="start" x="676.5" y="-489.3" font-family="Times,serif" font-size="14.00">companion</text>
<polygon fill="none" stroke="black" points="807,-482.5 807,-503.5 894,-503.5 894,-482.5 807,-482.5"/>
<text text-anchor="start" x="810" y="-489.3" font-family="Times,serif" font-size="14.00">Companion</text>
<polygon fill="none" stroke="black" points="624,-461.5 624,-482.5 807,-482.5 807,-461.5 624,-461.5"/>
<text text-anchor="start" x="684.5" y="-468.3" font-family="Times,serif" font-size="14.00">gold_left</text>
<polygon fill="none" stroke="black" points="807,-461.5 807,-482.5 894,-482.5 894,-461.5 807,-461.5"/>
<text text-anchor="start" x="840.5" y="-468.3" font-family="Times,serif" font-size="14.00">int</text>
<polygon fill="none" stroke="black" points="624,-440.5 624,-461.5 807,-461.5 807,-440.5 624,-440.5"/>
<text text-anchor="start" x="677.5" y="-447.3" font-family="Times,serif" font-size="14.00">last_round</text>
<polygon fill="none" stroke="black" points="807,-440.5 807,-461.5 894,-461.5 894,-440.5 807,-440.5"/>
<text text-anchor="start" x="840.5" y="-447.3" font-family="Times,serif" font-size="14.00">int</text>
<polygon fill="none" stroke="black" points="624,-419.5 624,-440.5 807,-440.5 807,-419.5 624,-419.5"/>
<text text-anchor="start" x="698.5" y="-426.3" font-family="Times,serif" font-size="14.00">level</text>
<polygon fill="none" stroke="black" points="807,-419.5 807,-440.5 894,-440.5 894,-419.5 807,-419.5"/>
<text text-anchor="start" x="840.5" y="-426.3" font-family="Times,serif" font-size="14.00">int</text>
<polygon fill="none" stroke="black" points="624,-398.5 624,-419.5 807,-419.5 807,-398.5 624,-398.5"/>
<text text-anchor="start" x="653.5" y="-405.3" font-family="Times,serif" font-size="14.00">partner_group_id</text>
<polygon fill="none" stroke="black" points="807,-398.5 807,-419.5 894,-419.5 894,-398.5 807,-398.5"/>
<text text-anchor="start" x="840.5" y="-405.3" font-family="Times,serif" font-size="14.00">int</text>
<polygon fill="none" stroke="black" points="624,-377.5 624,-398.5 807,-398.5 807,-377.5 624,-377.5"/>
<text text-anchor="start" x="678" y="-384.3" font-family="Times,serif" font-size="14.00">placement</text>
<polygon fill="none" stroke="black" points="807,-377.5 807,-398.5 894,-398.5 894,-377.5 807,-377.5"/>
<text text-anchor="start" x="840.5" y="-384.3" font-family="Times,serif" font-size="14.00">int</text>
<polygon fill="none" stroke="black" points="624,-356.5 624,-377.5 807,-377.5 807,-356.5 624,-356.5"/>
<text text-anchor="start" x="647.5" y="-363.3" font-family="Times,serif" font-size="14.00">players_eliminated</text>
<polygon fill="none" stroke="black" points="807,-356.5 807,-377.5 894,-377.5 894,-356.5 807,-356.5"/>
<text text-anchor="start" x="840.5" y="-363.3" font-family="Times,serif" font-size="14.00">int</text>
<polygon fill="none" stroke="black" points="624,-335.5 624,-356.5 807,-356.5 807,-335.5 624,-335.5"/>
<text text-anchor="start" x="695" y="-342.3" font-family="Times,serif" font-size="14.00">puuid</text>
<polygon fill="none" stroke="black" points="807,-335.5 807,-356.5 894,-356.5 894,-335.5 807,-335.5"/>
<text text-anchor="start" x="840" y="-342.3" font-family="Times,serif" font-size="14.00">str</text>
<polygon fill="none" stroke="black" points="624,-314.5 624,-335.5 807,-335.5 807,-314.5 624,-314.5"/>
<text text-anchor="start" x="658" y="-321.3" font-family="Times,serif" font-size="14.00">time_eliminated</text>
<polygon fill="none" stroke="black" points="807,-314.5 807,-335.5 894,-335.5 894,-314.5 807,-314.5"/>
<text text-anchor="start" x="834.5" y="-321.3" font-family="Times,serif" font-size="14.00">float</text>
<polygon fill="none" stroke="black" points="624,-293.5 624,-314.5 807,-314.5 807,-293.5 624,-293.5"/>
<text text-anchor="start" x="627" y="-300.3" font-family="Times,serif" font-size="14.00">total_damage_to_players</text>
<polygon fill="none" stroke="black" points="807,-293.5 807,-314.5 894,-314.5 894,-293.5 807,-293.5"/>
<text text-anchor="start" x="840.5" y="-300.3" font-family="Times,serif" font-size="14.00">int</text>
<polygon fill="none" stroke="black" points="624,-272.5 624,-293.5 807,-293.5 807,-272.5 624,-272.5"/>
<text text-anchor="start" x="695.5" y="-279.3" font-family="Times,serif" font-size="14.00">traits</text>
<polygon fill="none" stroke="black" points="807,-272.5 807,-293.5 894,-293.5 894,-272.5 807,-272.5"/>
<text text-anchor="start" x="814" y="-279.3" font-family="Times,serif" font-size="14.00">List[Trait]</text>
<polygon fill="none" stroke="black" points="624,-251.5 624,-272.5 807,-272.5 807,-251.5 624,-251.5"/>
<text text-anchor="start" x="697" y="-258.3" font-family="Times,serif" font-size="14.00">units</text>
<polygon fill="none" stroke="black" points="807,-251.5 807,-272.5 894,-272.5 894,-251.5 807,-251.5"/>
<text text-anchor="start" x="815.5" y="-258.3" font-family="Times,serif" font-size="14.00">List[Unit]</text>
</a>
</g>
</g>
<!-- src.models.Info.Info&#45;&gt;src.models.Participant.Participant -->
<g id="edge1" class="edge">
<title>src.models.Info.Info:e&#45;&gt;src.models.Participant.Participant:w</title>
<path fill="none" stroke="black" d="M516,-556.5C557.25,-556.5 571.91,-556.5 605.69,-556.5"/>
<polygon fill="black" stroke="black" points="614,-556.5 624,-561 619,-556.5 624,-556.5 624,-556.5 624,-556.5 619,-556.5 624,-552 614,-556.5 614,-556.5"/>
<ellipse fill="none" stroke="black" cx="610" cy="-556.5" rx="4" ry="4"/>
</g>
<!-- src.models.Participant.Participant&#45;&gt;src.models.Companion.Companion -->
<g id="edge2" class="edge">
<title>src.models.Participant.Participant:e&#45;&gt;src.models.Companion.Companion:w</title>
<path fill="none" stroke="black" d="M894,-493.5C947.08,-493.5 964,-493.5 1010.45,-493.5"/>
<polyline fill="none" stroke="black" points="1025.5,-493.5 1020.5,-493.5 "/>
<polygon fill="black" stroke="black" points="1019.5,-488.5 1019.5,-498.5 1017.5,-498.5 1017.5,-488.5 1019.5,-488.5"/>
<polyline fill="none" stroke="black" points="1020.5,-493.5 1015.5,-493.5 "/>
<polygon fill="black" stroke="black" points="1014.5,-488.5 1014.5,-498.5 1012.5,-498.5 1012.5,-488.5 1014.5,-488.5"/>
<polyline fill="none" stroke="black" points="1015.5,-493.5 1010.5,-493.5 "/>
</g>
<!-- src.models.Trait.Trait -->
<g id="node5" class="node">
<title>src.models.Trait.Trait</title>
<g id="a_node5"><a xlink:title="src.models.Trait.Trait&#10;&#10;Trait(name: str, num_units: int, style: int, tier_current: int, tier_total: int)&#10;">
<polygon fill="none" stroke="black" points="1022.5,-306.5 1022.5,-327.5 1141.5,-327.5 1141.5,-306.5 1022.5,-306.5"/>
<text text-anchor="start" x="1062.5" y="-314.3" font-family="Times,serif" font-weight="bold" font-size="14.00">Trait</text>
<polygon fill="none" stroke="black" points="1022.5,-285.5 1022.5,-306.5 1114.5,-306.5 1114.5,-285.5 1022.5,-285.5"/>
<text text-anchor="start" x="1048.5" y="-292.3" font-family="Times,serif" font-size="14.00">name</text>
<polygon fill="none" stroke="black" points="1114.5,-285.5 1114.5,-306.5 1141.5,-306.5 1141.5,-285.5 1114.5,-285.5"/>
<text text-anchor="start" x="1117.5" y="-292.3" font-family="Times,serif" font-size="14.00">str</text>
<polygon fill="none" stroke="black" points="1022.5,-264.5 1022.5,-285.5 1114.5,-285.5 1114.5,-264.5 1022.5,-264.5"/>
<text text-anchor="start" x="1031" y="-271.3" font-family="Times,serif" font-size="14.00">num_units</text>
<polygon fill="none" stroke="black" points="1114.5,-264.5 1114.5,-285.5 1141.5,-285.5 1141.5,-264.5 1114.5,-264.5"/>
<text text-anchor="start" x="1118" y="-271.3" font-family="Times,serif" font-size="14.00">int</text>
<polygon fill="none" stroke="black" points="1022.5,-243.5 1022.5,-264.5 1114.5,-264.5 1114.5,-243.5 1022.5,-243.5"/>
<text text-anchor="start" x="1051" y="-250.3" font-family="Times,serif" font-size="14.00">style</text>
<polygon fill="none" stroke="black" points="1114.5,-243.5 1114.5,-264.5 1141.5,-264.5 1141.5,-243.5 1114.5,-243.5"/>
<text text-anchor="start" x="1118" y="-250.3" font-family="Times,serif" font-size="14.00">int</text>
<polygon fill="none" stroke="black" points="1022.5,-222.5 1022.5,-243.5 1114.5,-243.5 1114.5,-222.5 1022.5,-222.5"/>
<text text-anchor="start" x="1025.5" y="-229.3" font-family="Times,serif" font-size="14.00">tier_current</text>
<polygon fill="none" stroke="black" points="1114.5,-222.5 1114.5,-243.5 1141.5,-243.5 1141.5,-222.5 1114.5,-222.5"/>
<text text-anchor="start" x="1118" y="-229.3" font-family="Times,serif" font-size="14.00">int</text>
<polygon fill="none" stroke="black" points="1022.5,-201.5 1022.5,-222.5 1114.5,-222.5 1114.5,-201.5 1022.5,-201.5"/>
<text text-anchor="start" x="1035.5" y="-208.3" font-family="Times,serif" font-size="14.00">tier_total</text>
<polygon fill="none" stroke="black" points="1114.5,-201.5 1114.5,-222.5 1141.5,-222.5 1141.5,-201.5 1114.5,-201.5"/>
<text text-anchor="start" x="1118" y="-208.3" font-family="Times,serif" font-size="14.00">int</text>
</a>
</g>
</g>
<!-- src.models.Participant.Participant&#45;&gt;src.models.Trait.Trait -->
<g id="edge3" class="edge">
<title>src.models.Participant.Participant:e&#45;&gt;src.models.Trait.Trait:w</title>
<path fill="none" stroke="black" d="M894,-282.5C946.11,-282.5 959.85,-310.02 1003.27,-316.25"/>
<polygon fill="black" stroke="black" points="1011.52,-316.82 1021.19,-321.99 1016.51,-317.16 1021.5,-317.5 1021.5,-317.5 1021.5,-317.5 1016.51,-317.16 1021.81,-313.01 1011.52,-316.82 1011.52,-316.82"/>
<ellipse fill="none" stroke="black" cx="1007.53" cy="-316.55" rx="4" ry="4"/>
</g>
<!-- src.models.Unit.Unit -->
<g id="node6" class="node">
<title>src.models.Unit.Unit</title>
<g id="a_node6"><a xlink:title="src.models.Unit.Unit&#10;&#10;Unit(character_id: str, itemNames: List[str], items: List[int], name: str, rarity: int, tier: int)&#10;">
<polygon fill="none" stroke="black" points="1002.5,-143.5 1002.5,-164.5 1161.5,-164.5 1161.5,-143.5 1002.5,-143.5"/>
<text text-anchor="start" x="1064.5" y="-151.3" font-family="Times,serif" font-weight="bold" font-size="14.00">Unit</text>
<polygon fill="none" stroke="black" points="1002.5,-122.5 1002.5,-143.5 1097.5,-143.5 1097.5,-122.5 1002.5,-122.5"/>
<text text-anchor="start" x="1005.5" y="-129.3" font-family="Times,serif" font-size="14.00">character_id</text>
<polygon fill="none" stroke="black" points="1097.5,-122.5 1097.5,-143.5 1161.5,-143.5 1161.5,-122.5 1097.5,-122.5"/>
<text text-anchor="start" x="1119" y="-129.3" font-family="Times,serif" font-size="14.00">str</text>
<polygon fill="none" stroke="black" points="1002.5,-101.5 1002.5,-122.5 1097.5,-122.5 1097.5,-101.5 1002.5,-101.5"/>
<text text-anchor="start" x="1009" y="-108.3" font-family="Times,serif" font-size="14.00">itemNames</text>
<polygon fill="none" stroke="black" points="1097.5,-101.5 1097.5,-122.5 1161.5,-122.5 1161.5,-101.5 1097.5,-101.5"/>
<text text-anchor="start" x="1100.5" y="-108.3" font-family="Times,serif" font-size="14.00">List[str]</text>
<polygon fill="none" stroke="black" points="1002.5,-80.5 1002.5,-101.5 1097.5,-101.5 1097.5,-80.5 1002.5,-80.5"/>
<text text-anchor="start" x="1030" y="-87.3" font-family="Times,serif" font-size="14.00">items</text>
<polygon fill="none" stroke="black" points="1097.5,-80.5 1097.5,-101.5 1161.5,-101.5 1161.5,-80.5 1097.5,-80.5"/>
<text text-anchor="start" x="1100.5" y="-87.3" font-family="Times,serif" font-size="14.00">List[int]</text>
<polygon fill="none" stroke="black" points="1002.5,-59.5 1002.5,-80.5 1097.5,-80.5 1097.5,-59.5 1002.5,-59.5"/>
<text text-anchor="start" x="1030" y="-66.3" font-family="Times,serif" font-size="14.00">name</text>
<polygon fill="none" stroke="black" points="1097.5,-59.5 1097.5,-80.5 1161.5,-80.5 1161.5,-59.5 1097.5,-59.5"/>
<text text-anchor="start" x="1119" y="-66.3" font-family="Times,serif" font-size="14.00">str</text>
<polygon fill="none" stroke="black" points="1002.5,-38.5 1002.5,-59.5 1097.5,-59.5 1097.5,-38.5 1002.5,-38.5"/>
<text text-anchor="start" x="1029.5" y="-45.3" font-family="Times,serif" font-size="14.00">rarity</text>
<polygon fill="none" stroke="black" points="1097.5,-38.5 1097.5,-59.5 1161.5,-59.5 1161.5,-38.5 1097.5,-38.5"/>
<text text-anchor="start" x="1119.5" y="-45.3" font-family="Times,serif" font-size="14.00">int</text>
<polygon fill="none" stroke="black" points="1002.5,-17.5 1002.5,-38.5 1097.5,-38.5 1097.5,-17.5 1002.5,-17.5"/>
<text text-anchor="start" x="1037" y="-24.3" font-family="Times,serif" font-size="14.00">tier</text>
<polygon fill="none" stroke="black" points="1097.5,-17.5 1097.5,-38.5 1161.5,-38.5 1161.5,-17.5 1097.5,-17.5"/>
<text text-anchor="start" x="1119.5" y="-24.3" font-family="Times,serif" font-size="14.00">int</text>
</a>
</g>
</g>
<!-- src.models.Participant.Participant&#45;&gt;src.models.Unit.Unit -->
<g id="edge4" class="edge">
<title>src.models.Participant.Participant:e&#45;&gt;src.models.Unit.Unit:w</title>
<path fill="none" stroke="black" d="M894,-261.5C954.71,-261.5 938.97,-175.13 984.14,-157.59"/>
<polygon fill="black" stroke="black" points="992.15,-156.2 1002.77,-158.93 997.07,-155.35 1002,-154.5 1002,-154.5 1002,-154.5 997.07,-155.35 1001.23,-150.07 992.15,-156.2 992.15,-156.2"/>
<ellipse fill="none" stroke="black" cx="988.2" cy="-156.89" rx="4" ry="4"/>
</g>
<!-- src.models.Metadata.Metadata -->
<g id="node4" class="node">
<title>src.models.Metadata.Metadata</title>
<g id="a_node4"><a xlink:title="src.models.Metadata.Metadata&#10;&#10;Metadata(data_version: str, match_id: str, participants: List[str])&#10;">
<polygon fill="none" stroke="black" points="306.5,-751.5 306.5,-772.5 467.5,-772.5 467.5,-751.5 306.5,-751.5"/>
<text text-anchor="start" x="349" y="-759.3" font-family="Times,serif" font-weight="bold" font-size="14.00">Metadata</text>
<polygon fill="none" stroke="black" points="306.5,-730.5 306.5,-751.5 403.5,-751.5 403.5,-730.5 306.5,-730.5"/>
<text text-anchor="start" x="309.5" y="-737.3" font-family="Times,serif" font-size="14.00">data_version</text>
<polygon fill="none" stroke="black" points="403.5,-730.5 403.5,-751.5 467.5,-751.5 467.5,-730.5 403.5,-730.5"/>
<text text-anchor="start" x="425" y="-737.3" font-family="Times,serif" font-size="14.00">str</text>
<polygon fill="none" stroke="black" points="306.5,-709.5 306.5,-730.5 403.5,-730.5 403.5,-709.5 306.5,-709.5"/>
<text text-anchor="start" x="322.5" y="-716.3" font-family="Times,serif" font-size="14.00">match_id</text>
<polygon fill="none" stroke="black" points="403.5,-709.5 403.5,-730.5 467.5,-730.5 467.5,-709.5 403.5,-709.5"/>
<text text-anchor="start" x="425" y="-716.3" font-family="Times,serif" font-size="14.00">str</text>
<polygon fill="none" stroke="black" points="306.5,-688.5 306.5,-709.5 403.5,-709.5 403.5,-688.5 306.5,-688.5"/>
<text text-anchor="start" x="311.5" y="-695.3" font-family="Times,serif" font-size="14.00">participants</text>
<polygon fill="none" stroke="black" points="403.5,-688.5 403.5,-709.5 467.5,-709.5 467.5,-688.5 403.5,-688.5"/>
<text text-anchor="start" x="406.5" y="-695.3" font-family="Times,serif" font-size="14.00">List[str]</text>
</a>
</g>
</g>
<!-- src.models.Root.Root -->
<g id="node7" class="node">
<title>src.models.Root.Root</title>
<g id="a_node7"><a xlink:title="src.models.Root.Root&#10;&#10;Root(_id: str, metadata: src.models.Metadata.Metadata, info: src.models.Info.Info)&#10;">
<polygon fill="none" stroke="black" points="0.5,-744.5 0.5,-765.5 149.5,-765.5 149.5,-744.5 0.5,-744.5"/>
<text text-anchor="start" x="56.5" y="-752.3" font-family="Times,serif" font-weight="bold" font-size="14.00">Root</text>
<polygon fill="none" stroke="black" points="0.5,-723.5 0.5,-744.5 74.5,-744.5 74.5,-723.5 0.5,-723.5"/>
<text text-anchor="start" x="27" y="-730.3" font-family="Times,serif" font-size="14.00">_id</text>
<polygon fill="none" stroke="black" points="74.5,-723.5 74.5,-744.5 149.5,-744.5 149.5,-723.5 74.5,-723.5"/>
<text text-anchor="start" x="101.5" y="-730.3" font-family="Times,serif" font-size="14.00">str</text>
<polygon fill="none" stroke="black" points="0.5,-702.5 0.5,-723.5 74.5,-723.5 74.5,-702.5 0.5,-702.5"/>
<text text-anchor="start" x="3.5" y="-709.3" font-family="Times,serif" font-size="14.00">metadata</text>
<polygon fill="none" stroke="black" points="74.5,-702.5 74.5,-723.5 149.5,-723.5 149.5,-702.5 74.5,-702.5"/>
<text text-anchor="start" x="77.5" y="-709.3" font-family="Times,serif" font-size="14.00">Metadata</text>
<polygon fill="none" stroke="black" points="0.5,-681.5 0.5,-702.5 74.5,-702.5 74.5,-681.5 0.5,-681.5"/>
<text text-anchor="start" x="23.5" y="-688.3" font-family="Times,serif" font-size="14.00">info</text>
<polygon fill="none" stroke="black" points="74.5,-681.5 74.5,-702.5 149.5,-702.5 149.5,-681.5 74.5,-681.5"/>
<text text-anchor="start" x="98" y="-688.3" font-family="Times,serif" font-size="14.00">Info</text>
</a>
</g>
</g>
<!-- src.models.Root.Root&#45;&gt;src.models.Info.Info -->
<g id="edge5" class="edge">
<title>src.models.Root.Root:e&#45;&gt;src.models.Info.Info:w</title>
<path fill="none" stroke="black" d="M149,-691.5C196.32,-691.5 203.08,-651.49 241.84,-643.05"/>
<polyline fill="none" stroke="black" points="257,-641.5 252.03,-642.01 "/>
<polygon fill="black" stroke="black" points="250.52,-637.14 251.54,-647.08 249.55,-647.29 248.53,-637.34 250.52,-637.14"/>
<polyline fill="none" stroke="black" points="252.03,-642.01 247.05,-642.52 "/>
<polygon fill="black" stroke="black" points="245.55,-637.65 246.57,-647.59 244.58,-647.8 243.56,-637.85 245.55,-637.65"/>
<polyline fill="none" stroke="black" points="247.05,-642.52 242.08,-643.03 "/>
</g>
<!-- src.models.Root.Root&#45;&gt;src.models.Metadata.Metadata -->
<g id="edge6" class="edge">
<title>src.models.Root.Root:e&#45;&gt;src.models.Metadata.Metadata:w</title>
<path fill="none" stroke="black" d="M149,-712.5C216.6,-712.5 230.58,-755.35 290.22,-761.71"/>
<polyline fill="none" stroke="black" points="305.5,-762.5 300.51,-762.24 "/>
<polygon fill="black" stroke="black" points="299.76,-757.2 299.25,-767.19 297.25,-767.08 297.77,-757.1 299.76,-757.2"/>
<polyline fill="none" stroke="black" points="300.51,-762.24 295.51,-761.99 "/>
<polygon fill="black" stroke="black" points="294.77,-756.94 294.26,-766.93 292.26,-766.83 292.77,-756.84 294.77,-756.94"/>
<polyline fill="none" stroke="black" points="295.51,-761.99 290.52,-761.73 "/>
</g>
</g>
</svg>
